<svg width="26" height="26" fill="none" xmlns="http://www.w3.org/2000/svg">
    <g clip-path="url(#clip0)" fill="#EC4F4F">
        <path d="M21.597 2.608h-4.644V.848A.848.848 0 0 0 16.105 0h-6.21a.848.848 0 0 0-.848.848v1.76H4.403a.848.848 0 0 0-.848.848v2.608c0 .468.38.848.848.848h17.194c.468 0 .848-.38.848-.848V3.456a.848.848 0 0 0-.848-.848zm-6.34 0h-4.514v-.912h4.514v.912zM4.733 8.607l.703 16.581c.019.454.392.812.847.812h13.435a.848.848 0 0 0 .847-.812l.703-16.58H4.733zm5.704 13.945a.848.848 0 0 1-1.695 0V12.055a.848.848 0 0 1 1.695 0v10.497zm3.41 0a.848.848 0 0 1-1.695 0V12.055a.848.848 0 0 1 1.696 0v10.497zm3.412 0a.848.848 0 0 1-1.696 0V12.055a.848.848 0 0 1 1.696 0v10.497z"/>
    </g>
    <defs>
        <clipPath id="clip0">
            <path fill="#fff" d="M0 0h26v26H0z"/>
        </clipPath>
    </defs>
</svg>