<svg width="48" height="48" fill="none" xmlns="http://www.w3.org/2000/svg">
    <g clip-path="url(#clip0)">
        <path d="M33.915 24.584a2.984 2.984 0 1 1 5.453 2.429 2.984 2.984 0 0 1-5.453-2.429zM36.765 31.593a2.33 2.33 0 1 1 4.255 1.895 2.33 2.33 0 0 1-4.255-1.895zM36.511 37.69a1.837 1.837 0 1 1 3.357 1.495 1.837 1.837 0 0 1-3.357-1.494zM34.802 41.714a1.32 1.32 0 1 1 2.411 1.074 1.32 1.32 0 0 1-2.411-1.074zM32.373 43.98a.869.869 0 1 1 1.587.707.869.869 0 0 1-1.587-.706zM14.277 19.902a2.985 2.985 0 1 1-3.836-4.573 2.985 2.985 0 0 1 3.836 4.573zM14.772 12.35a2.33 2.33 0 1 1-2.994-3.569 2.33 2.33 0 0 1 2.994 3.569zM17.691 6.985A1.837 1.837 0 1 1 15.33 4.17a1.837 1.837 0 0 1 2.362 2.815zM20.988 4.115a1.32 1.32 0 1 1-1.696-2.023 1.32 1.32 0 0 1 1.696 2.023zM24.162 3.143a.868.868 0 1 1-1.117-1.33.868.868 0 0 1 1.117 1.33z" fill="#747474"/>
        <path d="M29.874 32.723a2.984 2.984 0 1 1 1.444 5.791 2.984 2.984 0 0 1-1.444-5.79zM26.118 39.29a2.33 2.33 0 1 1 1.127 4.52 2.33 2.33 0 0 1-1.127-4.52zM21.152 42.834a1.838 1.838 0 1 1 .889 3.567 1.838 1.838 0 0 1-.89-3.567zM16.938 43.97a1.32 1.32 0 1 1 .638 2.56 1.32 1.32 0 0 1-.638-2.56zM13.644 43.453a.868.868 0 1 1 .42 1.685.868.868 0 0 1-.42-1.685zM21.466 14.357a2.985 2.985 0 1 1 1.242-5.84 2.985 2.985 0 0 1-1.241 5.84zM27.744 10.108a2.33 2.33 0 1 1 .969-4.557 2.33 2.33 0 0 1-.97 4.557zM33.753 9.097a1.838 1.838 0 1 1 .764-3.595 1.838 1.838 0 0 1-.764 3.595zM38.053 9.925a1.32 1.32 0 1 1 .548-2.58 1.32 1.32 0 0 1-.548 2.58zM40.766 11.83a.869.869 0 1 1 .362-1.7.869.869 0 0 1-.362 1.7z" fill="#759400"/>
        <path d="M20.971 34.55a2.985 2.985 0 1 1-3.676 4.704 2.985 2.985 0 0 1 3.676-4.704zM13.49 35.627a2.33 2.33 0 1 1-2.868 3.671 2.33 2.33 0 0 1 2.869-3.671zM7.634 33.894a1.838 1.838 0 1 1-2.263 2.896 1.838 1.838 0 0 1 2.263-2.896zM4.148 31.27a1.32 1.32 0 1 1-1.626 2.08 1.32 1.32 0 0 1 1.626-2.08zM2.53 28.365a.869.869 0 1 1-1.07 1.37.869.869 0 0 1 1.07-1.37z" fill="#747474"/><path d="M30.28 16.618a2.984 2.984 0 1 1 5.363-2.616 2.984 2.984 0 0 1-5.364 2.616zM37.479 18.937a2.33 2.33 0 1 1 4.187-2.042 2.33 2.33 0 0 1-4.187 2.042zM41.976 23.058a1.838 1.838 0 1 1 3.304-1.611 1.838 1.838 0 0 1-3.304 1.611zM43.962 26.947a1.32 1.32 0 1 1 2.372-1.157 1.32 1.32 0 0 1-2.372 1.157zM44.15 30.262a.869.869 0 1 1 1.562-.761.869.869 0 0 1-1.561.761zM14.055 28.66a2.985 2.985 0 1 1-5.97 0 2.985 2.985 0 0 1 5.97 0zM8.597 23.418a2.33 2.33 0 1 1-4.66-.001 2.33 2.33 0 0 1 4.66 0zM6.348 17.74a1.838 1.838 0 1 1-3.675 0 1.838 1.838 0 0 1 3.675 0zM6.272 13.373a1.32 1.32 0 1 1-2.639 0 1.32 1.32 0 0 1 2.639 0zM7.574 10.315a.869.869 0 1 1-1.738 0 .869.869 0 0 1 1.738 0z" fill="#759400"/>
    </g>
    <defs>
        <clipPath id="clip0">
        <path fill="#fff" d="M0 0h48v48H0z"/>
        </clipPath>
    </defs>
</svg>