<svg width="32" height="32" fill="none" xmlns="http://www.w3.org/2000/svg">
    <g clip-path="url(#clip0)" fill="#7D8097">
    <path d="M8.65 26.28a1.32 1.32 0 0 0-1.318-1.319 1.32 1.32 0 0 0-1.318 1.319 1.32 1.32 0 0 0 1.318 1.317A1.32 1.32 0 0 0 8.65 26.28zm-1.318.38a.38.38 0 1 1 .001-.761.38.38 0 0 1 0 .76zM8.178 5.61a.469.469 0 1 0 0-.937H6.487a.469.469 0 1 0 0 .938h1.69zM23.225 26.28a1.32 1.32 0 0 0 1.318 1.317 1.32 1.32 0 0 0 1.318-1.318 1.32 1.32 0 0 0-1.318-1.318 1.32 1.32 0 0 0-1.318 1.319zm1.698 0a.38.38 0 1 1-.761-.001.38.38 0 0 1 .761 0zM23.698 4.673a.469.469 0 1 0 0 .938h1.69a.469.469 0 1 0 0-.938h-1.69z"/>
    <path d="M29.75 3.187H19.336a2.19 2.19 0 0 0-2.188 2.188v7.619h-2.421V5.375a2.19 2.19 0 0 0-2.188-2.188H2.125A2.19 2.19 0 0 0-.063 5.375v21.276c0 1.089.852 2.188 2.188 2.188h4.113a.469.469 0 1 0 0-.938H2.125c-.79 0-1.25-.674-1.25-1.25V5.375c0-.69.561-1.25 1.25-1.25H12.54c.69 0 1.25.56 1.25 1.25v7.619h-.557V6.87a.702.702 0 0 0-.693-.693H2.125a.702.702 0 0 0-.693.693v17.19c0 .376.318.693.693.693H12.54a.702.702 0 0 0 .693-.693v-5.028h.557v7.619c0 .728-.605 1.25-1.25 1.25H8.426a.469.469 0 0 0 0 .938h4.113c1.144 0 2.188-.936 2.188-2.188v-7.619h2.421v7.619c0 1.089.852 2.188 2.188 2.188H29.75c1.126 0 2.188-.918 2.188-2.188v-9.544a.469.469 0 0 0-.938 0v9.544c0 .728-.605 1.25-1.25 1.25H19.336c-.773 0-1.25-.652-1.25-1.25v-7.619h.557v5.028c0 .376.317.693.693.693H29.75a.702.702 0 0 0 .693-.693V6.87a.702.702 0 0 0-.693-.693H19.336a.702.702 0 0 0-.693.693v6.124h-.557V5.375c0-.69.56-1.25 1.25-1.25H29.75c.689 0 1.25.56 1.25 1.25v9.544a.469.469 0 1 0 .938 0V5.375a2.19 2.19 0 0 0-2.188-2.188zM2.37 7.114h1.053v.811H2.37v-.81zm9.924 5.88H8.513a.469.469 0 0 0 0 .937h3.781v4.164h-1.221v-.722a.655.655 0 0 0-1.028-.539l-1.72 1.191a.656.656 0 0 0 0 1.077l1.72 1.19a.656.656 0 0 0 1.028-.538v-.722h1.221v4.783H2.37V8.862h9.924v4.132zm-2.159 4.918v1.303l-.94-.651.94-.652zm2.16-9.987H4.36v-.81h7.933v.81zm1.494 10.17h-.557V13.93h.557v4.164zm3.36 0h-2.422V13.93h2.421v4.164zm4.423-10.98h7.933v.81h-7.933v-.81zm-1.991 0h1.053v.81h-1.053v-.81zm0 11.917h3.798a.469.469 0 1 0 0-.937h-3.798V13.93h1.238v.722c0 .528.594.84 1.029.539l1.718-1.19a.656.656 0 0 0 0-1.078l-1.718-1.19a.656.656 0 0 0-1.029.538v.722h-1.238V8.863h9.924v14.952h-9.924v-4.783zm2.176-4.918v-1.303l.94.651-.94.652zm-3.114-.183v4.164h-.557V13.93h.557z"/>
    </g>
    <defs>
        <clipPath id="clip0">
            <path fill="#fff" d="M0 0h32v32H0z"/>
        </clipPath>
    </defs>
</svg>