<svg width="32" height="32" fill="none" xmlns="http://www.w3.org/2000/svg">
    <path d="M29.031 2.875H2.97A2.972 2.972 0 0 0 0 5.844v.648a.469.469 0 1 0 .938 0v-.648c0-1.12.91-2.032 2.03-2.032h26.063c1.12 0 2.032.912 2.032 2.032v14.218h-.938v-.067a.469.469 0 0 0-.938 0v.067H6.008a.469.469 0 1 0 0 .938h25.056v.156c0 1.12-.912 2.032-2.032 2.032H2.97a2.034 2.034 0 0 1-2.031-2.032V21h3.07a.469.469 0 1 0 0-.938H2.812V5.845c0-.086.07-.157.157-.157H29.03c.086 0 .157.07.157.157V17.99a.469.469 0 0 0 .937 0V5.844c0-.603-.49-1.094-1.094-1.094H2.97c-.603 0-1.094.49-1.094 1.094v14.218H.937V8.485a.469.469 0 1 0-.937 0v12.672a2.972 2.972 0 0 0 2.969 2.969h8.166c-.098 1.01-.325 1.718-.542 2.188h-2.03c-.776 0-1.407.63-1.407 1.406 0 .775.631 1.406 1.407 1.406h14.874c.776 0 1.407-.63 1.407-1.406 0-.776-.631-1.407-1.407-1.407h-2.03c-.217-.469-.444-1.176-.542-2.187h8.166A2.972 2.972 0 0 0 32 21.156V5.844a2.972 2.972 0 0 0-2.969-2.969zm-16.955 21.25h7.848c.083.93.267 1.65.468 2.188h-8.784c.201-.538.385-1.258.468-2.188zm11.361 3.125a.47.47 0 0 1 0 .938H8.563a.47.47 0 0 1 0-.938h14.876z" fill="#7D8097"/>
    <path d="M26.43 16.219h-8.94v-2.29a.469.469 0 0 0 .742-.224l.46-1.48.248.572a.47.47 0 0 0 .869-.021l.164-.436.494 1.05a.47.47 0 0 0 .855-.015l.33-.774.132.24a.468.468 0 0 0 .852-.071l.242-.683.19.533c.068.187.244.31.442.31h.001a.469.469 0 0 0 .441-.312l.124-.35.758 2.194a.469.469 0 0 0 .898-.041l.73-2.961a.469.469 0 0 0-.91-.225l-.35 1.421-.678-1.962a.469.469 0 0 0-.442-.315h-.001a.469.469 0 0 0-.442.312l-.132.373-.19-.531a.469.469 0 0 0-.442-.31h-.001a.469.469 0 0 0-.441.312l-.334.941-.093-.169a.47.47 0 0 0-.842.044l-.294.693-.52-1.107a.469.469 0 0 0-.864.034l-.146.39-.29-.669a.468.468 0 0 0-.878.047l-.515 1.657-.168-.294v-3.43a.468.468 0 1 0-.937 0v8.015c0 .26.21.47.469.47h9.408a.469.469 0 0 0 0-.938zM13.429 9.305a5.366 5.366 0 0 0-8.358 0 5.348 5.348 0 0 0-1.196 3.375 5.349 5.349 0 0 0 1.243 3.433 5.366 5.366 0 0 0 8.302-.047 5.349 5.349 0 0 0 1.205-3.386 5.349 5.349 0 0 0-1.196-3.375zm-.544.835c.42.6.697 1.306.778 2.071h-.765a7.403 7.403 0 0 0-.372-1.95c.125-.039.245-.08.36-.121zM9.25 8.446c.083.2.192.552.294 1.156.01.051.018.103.026.156-.212.006-.424.006-.636 0 .096-.613.212-1.055.316-1.312zm-1.864 1.02c.247-.38.53-.677.832-.883-.048.177-.089.359-.125.535-.036.183-.07.378-.1.582-.24-.024-.471-.056-.694-.093.028-.048.057-.095.087-.14zm-.498 1.02c.317.06.65.11.995.146-.045.497-.073 1.029-.083 1.58H6.54a6.39 6.39 0 0 1 .347-1.726zM5.615 15.22a4.41 4.41 0 0 1-.778-2.071h.765c.04.686.166 1.346.372 1.95a6.74 6.74 0 0 0-.36.121zm-.013-3.009h-.765a4.41 4.41 0 0 1 .778-2.072c.114.043.233.083.359.122a7.407 7.407 0 0 0-.372 1.95zm.938.938H7.8c.01.55.038 1.082.083 1.58-.345.035-.678.084-.995.145a6.39 6.39 0 0 1-.347-1.725zm.845 2.744a4.213 4.213 0 0 1-.087-.14c.223-.038.455-.07.694-.094.03.205.064.4.1.583.036.176.077.358.125.535a3.106 3.106 0 0 1-.832-.884zm1.433-5.2a13.795 13.795 0 0 0 .864 0c.043.478.071.99.082 1.518H8.736c.011-.562.04-1.069.082-1.518zm.433 6.221c-.083-.2-.192-.553-.294-1.156a11.07 11.07 0 0 1-.026-.157c.212-.005.424-.005.636 0-.096.614-.212 1.055-.316 1.313zm.43-2.247a14.121 14.121 0 0 0-.863 0c-.043-.478-.071-.99-.081-1.518h1.027c-.011.562-.04 1.069-.082 1.518zm1.434-5.2c.03.045.06.092.088.14-.224.037-.456.069-.695.094-.03-.205-.064-.4-.1-.583a8.226 8.226 0 0 0-.125-.535c.303.206.585.503.832.883zm0 6.426c-.247.38-.53.678-.832.884a8.27 8.27 0 0 0 .125-.535c.036-.184.07-.378.1-.583.24.025.471.056.695.094a4.486 4.486 0 0 1-.087.14zm.498-1.019c-.317-.06-.65-.11-.995-.146.045-.497.073-1.03.083-1.58h1.259a6.394 6.394 0 0 1-.347 1.726zm-.912-2.663a22.33 22.33 0 0 0-.083-1.58c.345-.035.678-.084.995-.145a6.39 6.39 0 0 1 .347 1.725H10.7zm2.184 3.01a6.687 6.687 0 0 0-.359-.122 7.403 7.403 0 0 0 .372-1.95h.765a4.41 4.41 0 0 1-.778 2.071z" fill="#7D8097"/>
</svg>