<svg width="32" height="32" fill="none" xmlns="http://www.w3.org/2000/svg">
    <path d="M23.18 6.064a.469.469 0 1 0-.925.155c.033.196.056.394.07.593h-1.433a10.076 10.076 0 0 0-.578-3.01c.288-.083.557-.173.804-.27.226.309.425.638.594.985a.469.469 0 1 0 .843-.41 7.299 7.299 0 0 0-2.638-2.965A7.26 7.26 0 0 0 16 0a7.27 7.27 0 0 0-5.65 2.695A7.247 7.247 0 0 0 8.718 7.28a7.246 7.246 0 0 0 1.676 4.642 7.27 7.27 0 0 0 11.214-.004 7.246 7.246 0 0 0 1.672-4.638c0-.408-.034-.818-.101-1.217zm-3.768-4.132c.381.244.733.526 1.051.841-.165.056-.339.11-.522.16a6.655 6.655 0 0 0-.663-1.083l.134.082zm-1.576 4.88a30.715 30.715 0 0 0-.135-2.538c.595-.056 1.163-.14 1.697-.249.32.843.51 1.792.556 2.787h-2.118zm2.118.938a9.059 9.059 0 0 1-.556 2.787c-.533-.109-1.101-.192-1.697-.248.077-.79.123-1.649.135-2.539h2.118zm-4.521-4.888c.2-1.134.434-1.66.567-1.856.133.195.366.722.567 1.856.03.173.06.353.086.538-.434.016-.872.016-1.306 0 .027-.185.055-.365.086-.538zM12.72 1.853a6.738 6.738 0 0 0-.66 1.08 9.23 9.23 0 0 1-.52-.159c.355-.35.75-.66 1.18-.92zm1.444 4.96h-2.118a9.056 9.056 0 0 1 .556-2.788c.533.11 1.101.193 1.697.249-.077.79-.123 1.648-.135 2.538zm.135 3.476c-.595.056-1.163.14-1.697.248a9.056 9.056 0 0 1-.556-2.787h2.118c.012.89.058 1.749.135 2.539zm-3.414-6.755c.246.096.514.185.801.268a10.08 10.08 0 0 0-.578 3.01H9.674a6.308 6.308 0 0 1 1.21-3.278zM9.674 7.75h1.434c.045 1.067.243 2.09.578 3.01a9.177 9.177 0 0 0-.801.269A6.308 6.308 0 0 1 9.674 7.75zm1.866 4.038c.164-.056.337-.108.52-.158a6.687 6.687 0 0 0 .66 1.08 6.386 6.386 0 0 1-1.18-.922zm1.717.055a6.323 6.323 0 0 1-.254-.429c.445-.083.916-.149 1.405-.194.048.343.103.669.163.97.093.461.196.852.311 1.175-.6-.287-1.157-.803-1.625-1.522zm1.314-9.471c-.06.302-.115.627-.162.97-.491-.045-.961-.11-1.406-.194.08-.147.165-.29.254-.428.468-.719 1.024-1.236 1.625-1.522a8.607 8.607 0 0 0-.31 1.174zm1.996 9.328c-.2 1.135-.434 1.661-.567 1.856-.133-.195-.366-.721-.567-1.856-.03-.172-.06-.352-.086-.538.434-.015.872-.015 1.306 0-.027.186-.055.366-.086.538zm.198-1.472c-.508-.02-1.021-.02-1.53 0a29.78 29.78 0 0 1-.133-2.478h1.796a29.78 29.78 0 0 1-.133 2.478zm-1.663-3.415c.012-.867.057-1.708.133-2.478a19.217 19.217 0 0 0 1.53 0c.076.77.12 1.61.133 2.478h-1.796zm3.64-4.093c.09.137.175.28.255.428-.445.084-.916.15-1.405.195a16.536 16.536 0 0 0-.163-.971 8.607 8.607 0 0 0-.311-1.174c.6.286 1.157.803 1.625 1.522zm0 9.123c-.467.719-1.023 1.235-1.624 1.522.115-.323.218-.714.31-1.174.061-.302.116-.628.163-.971.491.045.961.11 1.406.194-.08.148-.165.291-.254.429zm.538.866a6.647 6.647 0 0 0 .66-1.08c.183.05.356.104.52.16-.355.35-.75.66-1.18.92zm1.835-1.68a9.166 9.166 0 0 0-.801-.268c.335-.921.533-1.944.578-3.011h1.434a6.308 6.308 0 0 1-1.21 3.279z" fill="#7D8097"/>
    <path d="M23.18 6.064a.469.469 0 1 0-.925.155c.033.196.056.394.07.593h-1.433a10.076 10.076 0 0 0-.578-3.01c.288-.083.557-.173.804-.27.226.309.425.638.594.985a.469.469 0 1 0 .843-.41 7.299 7.299 0 0 0-2.638-2.965A7.26 7.26 0 0 0 16 0a7.27 7.27 0 0 0-5.65 2.695A7.247 7.247 0 0 0 8.718 7.28a7.246 7.246 0 0 0 1.676 4.642 7.27 7.27 0 0 0 11.214-.004 7.246 7.246 0 0 0 1.672-4.638c0-.408-.034-.818-.101-1.217zm-3.768-4.132c.381.244.733.526 1.051.841-.165.056-.339.11-.522.16a6.655 6.655 0 0 0-.663-1.083l.134.082zm-1.576 4.88a30.715 30.715 0 0 0-.135-2.538c.595-.056 1.163-.14 1.697-.249.32.843.51 1.792.556 2.787h-2.118zm2.118.938a9.059 9.059 0 0 1-.556 2.787c-.533-.109-1.101-.192-1.697-.248.077-.79.123-1.649.135-2.539h2.118zm-4.521-4.888c.2-1.134.434-1.66.567-1.856.133.195.366.722.567 1.856.03.173.06.353.086.538-.434.016-.872.016-1.306 0 .027-.185.055-.365.086-.538zM12.72 1.853a6.738 6.738 0 0 0-.66 1.08 9.23 9.23 0 0 1-.52-.159c.355-.35.75-.66 1.18-.92zm1.444 4.96h-2.118a9.056 9.056 0 0 1 .556-2.788c.533.11 1.101.193 1.697.249-.077.79-.123 1.648-.135 2.538zm.135 3.476c-.595.056-1.163.14-1.697.248a9.056 9.056 0 0 1-.556-2.787h2.118c.012.89.058 1.749.135 2.539zm-3.414-6.755c.246.096.514.185.801.268a10.08 10.08 0 0 0-.578 3.01H9.674a6.308 6.308 0 0 1 1.21-3.278zM9.674 7.75h1.434c.045 1.067.243 2.09.578 3.01a9.177 9.177 0 0 0-.801.269A6.308 6.308 0 0 1 9.674 7.75zm1.866 4.038c.164-.056.337-.108.52-.158a6.687 6.687 0 0 0 .66 1.08 6.386 6.386 0 0 1-1.18-.922zm1.717.055a6.323 6.323 0 0 1-.254-.429c.445-.083.916-.149 1.405-.194.048.343.103.669.163.97.093.461.196.852.311 1.175-.6-.287-1.157-.803-1.625-1.522zm1.314-9.471c-.06.302-.115.627-.162.97-.491-.045-.961-.11-1.406-.194.08-.147.165-.29.254-.428.468-.719 1.024-1.236 1.625-1.522a8.607 8.607 0 0 0-.31 1.174zm1.996 9.328c-.2 1.135-.434 1.661-.567 1.856-.133-.195-.366-.721-.567-1.856-.03-.172-.06-.352-.086-.538.434-.015.872-.015 1.306 0-.027.186-.055.366-.086.538zm.198-1.472c-.508-.02-1.021-.02-1.53 0a29.78 29.78 0 0 1-.133-2.478h1.796a29.78 29.78 0 0 1-.133 2.478zm-1.663-3.415c.012-.867.057-1.708.133-2.478a19.217 19.217 0 0 0 1.53 0c.076.77.12 1.61.133 2.478h-1.796zm3.64-4.093c.09.137.175.28.255.428-.445.084-.916.15-1.405.195a16.536 16.536 0 0 0-.163-.971 8.607 8.607 0 0 0-.311-1.174c.6.286 1.157.803 1.625 1.522zm0 9.123c-.467.719-1.023 1.235-1.624 1.522.115-.323.218-.714.31-1.174.061-.302.116-.628.163-.971.491.045.961.11 1.406.194-.08.148-.165.291-.254.429zm.538.866a6.647 6.647 0 0 0 .66-1.08c.183.05.356.104.52.16-.355.35-.75.66-1.18.92zm1.835-1.68a9.166 9.166 0 0 0-.801-.268c.335-.921.533-1.944.578-3.011h1.434a6.308 6.308 0 0 1-1.21 3.279z" fill="#7D8097"/>
    <path d="M23.18 6.064a.469.469 0 1 0-.925.155c.033.196.056.394.07.593h-1.433a10.076 10.076 0 0 0-.578-3.01c.288-.083.557-.173.804-.27.226.309.425.638.594.985a.469.469 0 1 0 .843-.41 7.299 7.299 0 0 0-2.638-2.965A7.26 7.26 0 0 0 16 0a7.27 7.27 0 0 0-5.65 2.695A7.247 7.247 0 0 0 8.718 7.28a7.246 7.246 0 0 0 1.676 4.642 7.27 7.27 0 0 0 11.214-.004 7.246 7.246 0 0 0 1.672-4.638c0-.408-.034-.818-.101-1.217zm-3.768-4.132c.381.244.733.526 1.051.841-.165.056-.339.11-.522.16a6.655 6.655 0 0 0-.663-1.083l.134.082zm-1.576 4.88a30.715 30.715 0 0 0-.135-2.538c.595-.056 1.163-.14 1.697-.249.32.843.51 1.792.556 2.787h-2.118zm2.118.938a9.059 9.059 0 0 1-.556 2.787c-.533-.109-1.101-.192-1.697-.248.077-.79.123-1.649.135-2.539h2.118zm-4.521-4.888c.2-1.134.434-1.66.567-1.856.133.195.366.722.567 1.856.03.173.06.353.086.538-.434.016-.872.016-1.306 0 .027-.185.055-.365.086-.538zM12.72 1.853a6.738 6.738 0 0 0-.66 1.08 9.23 9.23 0 0 1-.52-.159c.355-.35.75-.66 1.18-.92zm1.444 4.96h-2.118a9.056 9.056 0 0 1 .556-2.788c.533.11 1.101.193 1.697.249-.077.79-.123 1.648-.135 2.538zm.135 3.476c-.595.056-1.163.14-1.697.248a9.056 9.056 0 0 1-.556-2.787h2.118c.012.89.058 1.749.135 2.539zm-3.414-6.755c.246.096.514.185.801.268a10.08 10.08 0 0 0-.578 3.01H9.674a6.308 6.308 0 0 1 1.21-3.278zM9.674 7.75h1.434c.045 1.067.243 2.09.578 3.01a9.177 9.177 0 0 0-.801.269A6.308 6.308 0 0 1 9.674 7.75zm1.866 4.038c.164-.056.337-.108.52-.158a6.687 6.687 0 0 0 .66 1.08 6.386 6.386 0 0 1-1.18-.922zm1.717.055a6.323 6.323 0 0 1-.254-.429c.445-.083.916-.149 1.405-.194.048.343.103.669.163.97.093.461.196.852.311 1.175-.6-.287-1.157-.803-1.625-1.522zm1.314-9.471c-.06.302-.115.627-.162.97-.491-.045-.961-.11-1.406-.194.08-.147.165-.29.254-.428.468-.719 1.024-1.236 1.625-1.522a8.607 8.607 0 0 0-.31 1.174zm1.996 9.328c-.2 1.135-.434 1.661-.567 1.856-.133-.195-.366-.721-.567-1.856-.03-.172-.06-.352-.086-.538.434-.015.872-.015 1.306 0-.027.186-.055.366-.086.538zm.198-1.472c-.508-.02-1.021-.02-1.53 0a29.78 29.78 0 0 1-.133-2.478h1.796a29.78 29.78 0 0 1-.133 2.478zm-1.663-3.415c.012-.867.057-1.708.133-2.478a19.217 19.217 0 0 0 1.53 0c.076.77.12 1.61.133 2.478h-1.796zm3.64-4.093c.09.137.175.28.255.428-.445.084-.916.15-1.405.195a16.536 16.536 0 0 0-.163-.971 8.607 8.607 0 0 0-.311-1.174c.6.286 1.157.803 1.625 1.522zm0 9.123c-.467.719-1.023 1.235-1.624 1.522.115-.323.218-.714.31-1.174.061-.302.116-.628.163-.971.491.045.961.11 1.406.194-.08.148-.165.291-.254.429zm.538.866a6.647 6.647 0 0 0 .66-1.08c.183.05.356.104.52.16-.355.35-.75.66-1.18.92zm1.835-1.68a9.166 9.166 0 0 0-.801-.268c.335-.921.533-1.944.578-3.011h1.434a6.308 6.308 0 0 1-1.21 3.279zM30.594 29.188h-.532V24a.469.469 0 1 0-.937 0v5.188h-2.813v-7.813h2.813V22a.469.469 0 1 0 .938 0v-1.094a.469.469 0 0 0-.47-.468h-3.75a.469.469 0 0 0-.468.468v8.282h-.5v-8.282a.469.469 0 0 0-.469-.468h-3.75a.469.469 0 0 0-.468.468v8.282h-8.594v-1.22a.469.469 0 0 0-.938 0v1.22H8.031v-.563H9c.775 0 1.406-.63 1.406-1.406 0-.776-.63-1.407-1.406-1.407H4.25a1.408 1.408 0 0 0 0 2.813h.969v.563H2.594v-4.063h8.062v.865a.469.469 0 0 0 .938 0v-.865h.212a.596.596 0 0 0 .575-.42.584.584 0 0 0-.235-.657l-5.18-3.507a.612.612 0 0 0-.681 0l-5.181 3.507a.584.584 0 0 0-.234.657c.077.251.307.42.574.42h.212v4.062h-.25a1.408 1.408 0 0 0 0 2.813h29.188c.775 0 1.406-.63 1.406-1.406 0-.776-.63-1.407-1.406-1.407zM8.03 26.75H9a.47.47 0 0 1 0 .938h-.969v-.938zm13.094-5.375h2.813v7.813h-2.813v-7.813zM6.156 26.75h.938v.938h-.938v-.938zm0 1.875h.938v.563h-.938v-.563zm-1.906-.938a.47.47 0 0 1 0-.937h.969v.938H4.25zm2.844-3.5h-.938v-.593a.47.47 0 0 1 .938 0v.593zm-.469-2.744l4.055 2.744H8.03v-.593c0-.776-.63-1.407-1.406-1.407-.775 0-1.406.631-1.406 1.407v.593H2.57l4.055-2.744zm23.969 9.62H1.406a.47.47 0 0 1 0-.938h29.188a.47.47 0 0 1 0 .938z" fill="#7D8097"/>
    <path d="M30.594 29.188h-.532V24a.469.469 0 1 0-.937 0v5.188h-2.813v-7.813h2.813V22a.469.469 0 1 0 .938 0v-1.094a.469.469 0 0 0-.47-.468h-3.75a.469.469 0 0 0-.468.468v8.282h-.5v-8.282a.469.469 0 0 0-.469-.468h-3.75a.469.469 0 0 0-.468.468v8.282h-8.594v-1.22a.469.469 0 0 0-.938 0v1.22H8.031v-.563H9c.775 0 1.406-.63 1.406-1.406 0-.776-.63-1.407-1.406-1.407H4.25a1.408 1.408 0 0 0 0 2.813h.969v.563H2.594v-4.063h8.062v.865a.469.469 0 0 0 .938 0v-.865h.212a.596.596 0 0 0 .575-.42.584.584 0 0 0-.235-.657l-5.18-3.507a.612.612 0 0 0-.681 0l-5.181 3.507a.584.584 0 0 0-.234.657c.077.251.307.42.574.42h.212v4.062h-.25a1.408 1.408 0 0 0 0 2.813h29.188c.775 0 1.406-.63 1.406-1.406 0-.776-.63-1.407-1.406-1.407zM8.03 26.75H9a.47.47 0 0 1 0 .938h-.969v-.938zm13.094-5.375h2.813v7.813h-2.813v-7.813zM6.156 26.75h.938v.938h-.938v-.938zm0 1.875h.938v.563h-.938v-.563zm-1.906-.938a.47.47 0 0 1 0-.937h.969v.938H4.25zm2.844-3.5h-.938v-.593a.47.47 0 0 1 .938 0v.593zm-.469-2.744l4.055 2.744H8.03v-.593c0-.776-.63-1.407-1.406-1.407-.775 0-1.406.631-1.406 1.407v.593H2.57l4.055-2.744zm23.969 9.62H1.406a.47.47 0 0 1 0-.938h29.188a.47.47 0 0 1 0 .938z" fill="#7D8097"/>
    <path d="M30.594 29.188h-.532V24a.469.469 0 1 0-.937 0v5.188h-2.813v-7.813h2.813V22a.469.469 0 1 0 .938 0v-1.094a.469.469 0 0 0-.47-.468h-3.75a.469.469 0 0 0-.468.468v8.282h-.5v-8.282a.469.469 0 0 0-.469-.468h-3.75a.469.469 0 0 0-.468.468v8.282h-8.594v-1.22a.469.469 0 0 0-.938 0v1.22H8.031v-.563H9c.775 0 1.406-.63 1.406-1.406 0-.776-.63-1.407-1.406-1.407H4.25a1.408 1.408 0 0 0 0 2.813h.969v.563H2.594v-4.063h8.062v.865a.469.469 0 0 0 .938 0v-.865h.212a.596.596 0 0 0 .575-.42.584.584 0 0 0-.235-.657l-5.18-3.507a.612.612 0 0 0-.681 0l-5.181 3.507a.584.584 0 0 0-.234.657c.077.251.307.42.574.42h.212v4.062h-.25a1.408 1.408 0 0 0 0 2.813h29.188c.775 0 1.406-.63 1.406-1.406 0-.776-.63-1.407-1.406-1.407zM8.03 26.75H9a.47.47 0 0 1 0 .938h-.969v-.938zm13.094-5.375h2.813v7.813h-2.813v-7.813zM6.156 26.75h.938v.938h-.938v-.938zm0 1.875h.938v.563h-.938v-.563zm-1.906-.938a.47.47 0 0 1 0-.937h.969v.938H4.25zm2.844-3.5h-.938v-.593a.47.47 0 0 1 .938 0v.593zm-.469-2.744l4.055 2.744H8.03v-.593c0-.776-.63-1.407-1.406-1.407-.775 0-1.406.631-1.406 1.407v.593H2.57l4.055-2.744zm23.969 9.62H1.406a.47.47 0 0 1 0-.938h29.188a.47.47 0 0 1 0 .938z" fill="#7D8097"/>
    <path d="M23.16 23.417l-1.25-.01h-.004a.469.469 0 0 0-.004.937l1.25.01h.005a.469.469 0 0 0 .004-.937z" fill="#7D8097"/>
    <path d="M23.16 23.417l-1.25-.01h-.004a.469.469 0 0 0-.004.937l1.25.01h.005a.469.469 0 0 0 .004-.937z" fill="#7D8097"/>
    <path d="M23.16 23.417l-1.25-.01h-.004a.469.469 0 0 0-.004.937l1.25.01h.005a.469.469 0 0 0 .004-.937zM23.16 24.863l-1.25-.011h-.004a.469.469 0 0 0-.004.937l1.25.012h.005a.469.469 0 0 0 .004-.938z" fill="#7D8097"/>
    <path d="M23.16 24.863l-1.25-.011h-.004a.469.469 0 0 0-.004.937l1.25.012h.005a.469.469 0 0 0 .004-.938z" fill="#7D8097"/>
    <path d="M23.16 24.863l-1.25-.011h-.004a.469.469 0 0 0-.004.937l1.25.012h.005a.469.469 0 0 0 .004-.938zM23.16 26.309l-1.25-.011h-.004a.469.469 0 0 0-.004.937l1.25.011h.005a.469.469 0 0 0 .004-.937z" fill="#7D8097"/>
    <path d="M23.16 26.309l-1.25-.011h-.004a.469.469 0 0 0-.004.937l1.25.011h.005a.469.469 0 0 0 .004-.937z" fill="#7D8097"/>
    <path d="M23.16 26.309l-1.25-.011h-.004a.469.469 0 0 0-.004.937l1.25.011h.005a.469.469 0 0 0 .004-.937zM23.16 27.755l-1.25-.012h-.004a.469.469 0 0 0-.004.938l1.25.011h.005a.469.469 0 0 0 .004-.937z" fill="#7D8097"/>
    <path d="M23.16 27.755l-1.25-.012h-.004a.469.469 0 0 0-.004.938l1.25.011h.005a.469.469 0 0 0 .004-.937z" fill="#7D8097"/>
    <path d="M23.16 27.755l-1.25-.012h-.004a.469.469 0 0 0-.004.938l1.25.011h.005a.469.469 0 0 0 .004-.937zM28.348 23.417l-1.25-.01h-.004a.469.469 0 0 0-.004.937l1.25.01h.004a.469.469 0 0 0 .004-.937z" fill="#7D8097"/>
    <path d="M28.348 23.417l-1.25-.01h-.004a.469.469 0 0 0-.004.937l1.25.01h.004a.469.469 0 0 0 .004-.937z" fill="#7D8097"/>
    <path d="M28.348 23.417l-1.25-.01h-.004a.469.469 0 0 0-.004.937l1.25.01h.004a.469.469 0 0 0 .004-.937zM28.348 24.863l-1.25-.011h-.004a.469.469 0 0 0-.004.937l1.25.012h.004a.469.469 0 0 0 .004-.938z" fill="#7D8097"/>
    <path d="M28.348 24.863l-1.25-.011h-.004a.469.469 0 0 0-.004.937l1.25.012h.004a.469.469 0 0 0 .004-.938z" fill="#7D8097"/>
    <path d="M28.348 24.863l-1.25-.011h-.004a.469.469 0 0 0-.004.937l1.25.012h.004a.469.469 0 0 0 .004-.938zM28.348 26.309l-1.25-.011h-.004a.469.469 0 0 0-.004.937l1.25.011h.004a.469.469 0 0 0 .004-.937z" fill="#7D8097"/>
    <path d="M28.348 26.309l-1.25-.011h-.004a.469.469 0 0 0-.004.937l1.25.011h.004a.469.469 0 0 0 .004-.937z" fill="#7D8097"/>
    <path d="M28.348 26.309l-1.25-.011h-.004a.469.469 0 0 0-.004.937l1.25.011h.004a.469.469 0 0 0 .004-.937zM28.348 27.755l-1.25-.012h-.004a.469.469 0 0 0-.004.938l1.25.011h.004a.469.469 0 0 0 .004-.937z" fill="#7D8097"/>
    <path d="M28.348 27.755l-1.25-.012h-.004a.469.469 0 0 0-.004.938l1.25.011h.004a.469.469 0 0 0 .004-.937z" fill="#7D8097"/>
    <path d="M28.348 27.755l-1.25-.012h-.004a.469.469 0 0 0-.004.938l1.25.011h.004a.469.469 0 0 0 .004-.937zM21.958 22.878a.469.469 0 1 0 0-.937.469.469 0 0 0 0 .937z" fill="#7D8097"/>
    <path d="M21.958 22.878a.469.469 0 1 0 0-.937.469.469 0 0 0 0 .937z" fill="#7D8097"/>
    <path d="M21.958 22.878a.469.469 0 1 0 0-.937.469.469 0 0 0 0 .937zM27.145 22.878a.469.469 0 1 0 0-.937.469.469 0 0 0 0 .937z" fill="#7D8097"/>
    <path d="M27.145 22.878a.469.469 0 1 0 0-.937.469.469 0 0 0 0 .937z" fill="#7D8097"/>
    <path d="M27.145 22.878a.469.469 0 1 0 0-.937.469.469 0 0 0 0 .937zM5.912 10.955a.469.469 0 0 0-.36-.434l-1.334-.317a.469.469 0 0 0-.217.912l.375.09c-1.97 1.61-2.37 3.452-2.332 4.773.044 1.578.7 2.74.728 2.79a.468.468 0 0 0 .814-.466c-.088-.155-2.007-3.647 1.431-6.412l.025.517a.469.469 0 1 0 .936-.044l-.066-1.409z" fill="#7D8097"/>
    <path d="M5.912 10.955a.469.469 0 0 0-.36-.434l-1.334-.317a.469.469 0 0 0-.217.912l.375.09c-1.97 1.61-2.37 3.452-2.332 4.773.044 1.578.7 2.74.728 2.79a.468.468 0 0 0 .814-.466c-.088-.155-2.007-3.647 1.431-6.412l.025.517a.469.469 0 1 0 .936-.044l-.066-1.409z" fill="#7D8097"/>
    <path d="M5.912 10.955a.469.469 0 0 0-.36-.434l-1.334-.317a.469.469 0 0 0-.217.912l.375.09c-1.97 1.61-2.37 3.452-2.332 4.773.044 1.578.7 2.74.728 2.79a.468.468 0 0 0 .814-.466c-.088-.155-2.007-3.647 1.431-6.412l.025.517a.469.469 0 1 0 .936-.044l-.066-1.409zM29.408 18.138a.469.469 0 0 0-.552-.366l-.377.076c1.112-2.29.701-4.128.113-5.312-.702-1.414-1.786-2.193-1.831-2.226a.469.469 0 1 0-.543.765c.01.006.936.673 1.535 1.878.703 1.416.653 2.941-.145 4.542l-.239-.46a.469.469 0 1 0-.831.434l.651 1.25a.469.469 0 0 0 .509.243l1.343-.271a.469.469 0 0 0 .367-.553z" fill="#7D8097"/>
    <path d="M29.408 18.138a.469.469 0 0 0-.552-.366l-.377.076c1.112-2.29.701-4.128.113-5.312-.702-1.414-1.786-2.193-1.831-2.226a.469.469 0 1 0-.543.765c.01.006.936.673 1.535 1.878.703 1.416.653 2.941-.145 4.542l-.239-.46a.469.469 0 1 0-.831.434l.651 1.25a.469.469 0 0 0 .509.243l1.343-.271a.469.469 0 0 0 .367-.553z" fill="#7D8097"/>
    <path d="M29.408 18.138a.469.469 0 0 0-.552-.366l-.377.076c1.112-2.29.701-4.128.113-5.312-.702-1.414-1.786-2.193-1.831-2.226a.469.469 0 1 0-.543.765c.01.006.936.673 1.535 1.878.703 1.416.653 2.941-.145 4.542l-.239-.46a.469.469 0 1 0-.831.434l.651 1.25a.469.469 0 0 0 .509.243l1.343-.271a.469.469 0 0 0 .367-.553z" fill="#7D8097"/>
</svg>