<svg width="32" height="32" fill="none" xmlns="http://www.w3.org/2000/svg">
    <path d="M26.428 8.276H5.572a.689.689 0 0 0-.688.688v10.402a.689.689 0 1 0 1.377 0V9.653h19.478v9.713a.689.689 0 0 0 1.378 0V8.964a.689.689 0 0 0-.689-.688z" fill="#7D8097"/><path d="M31.38 21.825h-1.268V7.362a2.084 2.084 0 0 0-2.082-2.081H3.97a2.084 2.084 0 0 0-2.082 2.081v14.463H.62a.62.62 0 0 0-.62.62v1.217a3.061 3.061 0 0 0 3.058 3.058h25.884A3.061 3.061 0 0 0 32 23.662v-1.217a.62.62 0 0 0-.62-.62zM3.266 7.362c0-.388.316-.704.704-.704h24.06c.388 0 .704.316.704.704v14.463H19.41a.62.62 0 0 0-.637.62.95.95 0 0 1-.948.948h-3.648a.95.95 0 0 1-.948-.948.622.622 0 0 0-.635-.62H3.266V7.362zm27.494 16.3a1.82 1.82 0 0 1-1.818 1.818H3.058a1.82 1.82 0 0 1-1.818-1.818v-.597h10.837a2.192 2.192 0 0 0 2.1 1.568h3.647c.991 0 1.83-.663 2.099-1.568H30.76v.597z" fill="#7D8097"/>
    <path d="M17.02 12.279a.689.689 0 0 0-.973 0l-4.331 4.33a.689.689 0 0 0 .974.975l4.33-4.331a.689.689 0 0 0 0-.974zM19.588 14.789a.689.689 0 0 0-.974 0l-1.726 1.725a.689.689 0 0 0 .974.974l1.726-1.725a.689.689 0 0 0 0-.974z" fill="#7D8097"/>
</svg>