<svg width="32" height="32" fill="none" xmlns="http://www.w3.org/2000/svg">
    <path d="M30.4 1.6A1.602 1.602 0 0 0 28.8 0H3.2a1.602 1.602 0 0 0-1.6 1.6H0v1.067h1.6a1.602 1.602 0 0 0 1.6 1.6V30.4A1.602 1.602 0 0 0 4.8 32h22.4a1.602 1.602 0 0 0 1.6-1.6V4.267a1.602 1.602 0 0 0 1.6-1.6H32V1.6h-1.6zm-2.667 28.8a.534.534 0 0 1-.533.533H4.8a.534.534 0 0 1-.533-.533V4.267h23.466V30.4zm1.6-27.733a.534.534 0 0 1-.533.533H3.2a.534.534 0 0 1-.533-.533V1.6c0-.295.238-.533.533-.533h25.6c.294 0 .533.238.533.533v1.067z" fill="#7D8097"/>
    <path d="M10.133 17.067a4.8 4.8 0 1 0 0-9.6 4.8 4.8 0 0 0 0 9.6zm3.69-5.334H11.2a.534.534 0 0 1-.533-.533V8.576a3.736 3.736 0 0 1 3.157 3.157zM9.6 8.576V11.2a1.602 1.602 0 0 0 1.6 1.6h2.624A3.731 3.731 0 1 1 9.6 8.576zM19.2 13.867h5.333c.59-.001 1.066-.478 1.067-1.067v-1.067c0-.589-.478-1.066-1.067-1.067H19.2c-.589.001-1.066.478-1.067 1.067V12.8c.001.589.478 1.066 1.067 1.066zm0-2.134h5.333l.001 1.067H19.2v-1.067zM19.2 18.133h6.4c.589 0 1.066-.477 1.067-1.066V16c-.001-.589-.478-1.066-1.067-1.067h-6.4c-.589.001-1.066.478-1.067 1.067v1.067c.001.588.478 1.066 1.067 1.066zm0-2.133h6.4l.001 1.067H19.2V16zM16 11.733h1.067V12.8H16v-1.067zM16 16h1.067v1.067H16V16zM19.2 9.6h4.267c.588 0 1.066-.478 1.066-1.067V7.467c0-.59-.478-1.066-1.066-1.067H19.2c-.589 0-1.066.478-1.067 1.067v1.066c.001.589.478 1.066 1.067 1.067zm0-2.133h4.267v1.066H19.2V7.467zM16 7.467h1.067v1.066H16V7.467zM10.667 23.467H8.533a1.602 1.602 0 0 0-1.6 1.6v3.2a1.602 1.602 0 0 0 1.6 1.6h2.134a1.602 1.602 0 0 0 1.6-1.6v-3.2a1.602 1.602 0 0 0-1.6-1.6zm.533 4.8a.534.534 0 0 1-.533.533H8.533A.534.534 0 0 1 8 28.267v-3.2c0-.295.239-.534.533-.534h2.134c.294 0 .533.239.533.534v3.2zM17.067 25.067h-2.134a1.602 1.602 0 0 0-1.6 1.6v1.6a1.602 1.602 0 0 0 1.6 1.6h2.134a1.602 1.602 0 0 0 1.6-1.6v-1.6a1.602 1.602 0 0 0-1.6-1.6zm.533 3.2a.534.534 0 0 1-.533.533h-2.134a.534.534 0 0 1-.533-.533v-1.6c0-.295.239-.533.533-.534h2.134c.294 0 .533.24.533.534v1.6zM23.467 23.467h-2.134a1.602 1.602 0 0 0-1.6 1.6v3.2a1.602 1.602 0 0 0 1.6 1.6h2.134a1.602 1.602 0 0 0 1.6-1.6v-3.2a1.602 1.602 0 0 0-1.6-1.6zm.533 4.8a.534.534 0 0 1-.533.533h-2.134a.534.534 0 0 1-.533-.533v-3.2c0-.295.239-.534.533-.534h2.134c.294 0 .533.239.533.534v3.2zM14.425 21.64L11.2 20.43v-.163c0-.59-.478-1.066-1.067-1.067H9.067c-.59 0-1.066.478-1.067 1.067v1.066c0 .59.478 1.066 1.067 1.067h1.066c.501-.001.934-.35 1.042-.84l3.225 1.21v.163c0 .59.478 1.066 1.067 1.067h1.066c.59 0 1.066-.478 1.067-1.067v-.163l3.226-1.21c.107.49.54.839 1.04.84h1.067c.59 0 1.066-.478 1.067-1.067v-1.066c0-.59-.478-1.066-1.067-1.067h-1.066c-.59 0-1.066.478-1.067 1.067v.163l-3.226 1.21a1.068 1.068 0 0 0-1.04-.84h-1.067c-.501.001-.934.35-1.042.84zm7.442-1.373h1.066l.001 1.066h-1.067v-1.066zm-6.4 1.6h1.066l.001 1.066h-1.067v-1.066zm-6.4-.534v-1.066h1.066l.001 1.066H9.067z" fill="#7D8097"/>
</svg>