<svg width="52" height="52" fill="none" xmlns="http://www.w3.org/2000/svg">
    <g clip-path="url(#clip0)">
        <path d="M18.262 40.768L10.504 45a6.977 6.977 0 0 0-1.245.886A25.88 25.88 0 0 0 26 52a25.897 25.897 0 0 0 16.644-6.028 6.89 6.89 0 0 0-1.368-.916l-8.307-4.154a3.168 3.168 0 0 1-1.751-2.833v-3.26c.233-.265.5-.607.786-1.01a19.115 19.115 0 0 0 2.582-5.204c1.065-.329 1.85-1.313 1.85-2.482v-3.48c0-.764-.34-1.448-.869-1.927v-5.03S36.6 7.85 26.001 7.85c-10.6 0-9.566 7.827-9.566 7.827v5.029a2.594 2.594 0 0 0-.87 1.928v3.479c0 .916.482 1.723 1.204 2.189.869 3.784 3.145 6.508 3.145 6.508v3.178a3.171 3.171 0 0 1-1.652 2.78z" fill="#E7ECED"/>
        <path d="M26.445.004C12.088-.241.248 11.199.004 25.556c-.14 8.14 3.489 15.456 9.266 20.322.377-.33.783-.632 1.233-.877l7.758-4.232a3.169 3.169 0 0 0 1.651-2.782V34.81s-2.277-2.724-3.145-6.508a2.61 2.61 0 0 1-1.203-2.19v-3.478c0-.765.34-1.45.869-1.928v-5.03S15.4 7.85 25.999 7.85c10.6 0 9.566 7.827 9.566 7.827v5.029c.53.479.87 1.163.87 1.928v3.479c0 1.17-.786 2.153-1.851 2.482a19.112 19.112 0 0 1-2.582 5.204 12.54 12.54 0 0 1-.786 1.01v3.26c0 1.2.678 2.298 1.751 2.833l8.307 4.154c.499.249.949.564 1.364.914 5.602-4.672 9.222-11.658 9.356-19.524C52.241 12.088 40.802.248 26.444.004z" fill="#7D8097"/>
    </g>
    <defs>
        <clipPath id="clip0">
            <path fill="#fff" d="M0 0h52v52H0z"/>
        </clipPath>
    </defs>
</svg>